<svg width="52" height="44" viewBox="0 0 52 44" fill="none" xmlns="http://www.w3.org/2000/svg">
<g clip-path="url(#clip0_9071_220)">
<path fill-rule="evenodd" clip-rule="evenodd" d="M46.6145 42.3366C46.9087 42.3366 47.0985 42.3503 47.2883 42.4048C47.5065 42.4821 47.6631 42.6321 47.6631 42.8731C47.6631 43.2731 47.3025 43.5913 46.6857 43.5913C46.121 43.5913 45.7177 43.2777 45.7177 42.9185C45.7177 42.7549 45.8126 42.5958 45.9644 42.4821C46.0831 42.373 46.2444 42.3366 46.605 42.3366H46.6097H46.6145ZM46.5148 39.2181C46.8897 39.2181 47.1175 39.6227 47.1175 40.1137C47.1175 40.641 46.8944 40.932 46.586 40.932C46.2159 40.932 45.9787 40.541 45.9787 40.0364C45.9787 39.5318 46.2444 39.2181 46.5101 39.2181H46.5196H46.5148ZM48.3844 39.0454C48.0902 39.0818 47.7106 39.1181 47.3547 39.1409C47.0937 39.009 46.8612 38.9454 46.567 38.9454H46.5575C45.9312 38.9454 45.1483 39.3227 45.1483 40.1364C45.1483 40.6092 45.4472 40.9547 45.8363 41.0956C45.7177 41.2365 45.4757 41.432 45.1246 41.5684C45.1246 41.6502 45.1483 41.8002 45.2337 41.9139C45.3286 42.0639 45.4947 42.2139 45.7746 42.3094C45.5896 42.423 45.3476 42.5867 45.1957 42.7231C45.0581 42.8412 44.9822 42.964 44.9822 43.1185C44.9822 43.5368 45.433 44.005 46.3488 44.005C47.35 44.005 48.3132 43.3504 48.3132 42.5549C48.3132 41.8321 47.6679 41.6866 47.1886 41.6866C46.9419 41.6866 46.7094 41.7002 46.4437 41.7002C46.1068 41.7002 45.9739 41.5502 45.9739 41.4229C45.9739 41.3275 46.0593 41.2274 46.14 41.1683C46.2634 41.1865 46.3962 41.2047 46.5101 41.2047C47.2076 41.2047 47.8861 40.8365 47.8861 40.0682C47.8861 39.8228 47.815 39.6364 47.6916 39.4954L48.1186 39.5273C48.2373 39.4591 48.3796 39.2318 48.4366 39.1045L48.3891 39.0454H48.3844ZM44.6643 42.2503V42.0093C44.2515 41.9502 44.204 41.9275 44.204 41.4775V40.0728C44.204 39.3636 43.8434 38.9408 43.2266 38.9408C43.0083 38.9408 42.8328 39.0181 42.6192 39.15C42.4389 39.2591 42.2823 39.3682 42.14 39.4727V38.9227C41.7556 39.059 41.3286 39.15 40.911 39.2045V39.4363C41.2954 39.5 41.3333 39.5182 41.3333 39.9591V41.4593C41.3333 41.9139 41.2954 41.9366 40.8161 42.0048V42.2457H42.5433V42.0048C42.1685 41.9548 42.1352 41.923 42.1352 41.4729V39.7546C42.3488 39.5818 42.5718 39.4636 42.809 39.4636C43.1791 39.4636 43.3879 39.6909 43.3879 40.2046V41.4411C43.3879 41.9139 43.35 41.9457 42.9799 42.0003V42.2412H44.6548L44.6643 42.2503ZM40.4982 42.2503V42.0093C40.0285 41.9502 39.9905 41.9139 39.9905 41.4275V38.9408C39.6157 39.0681 39.1791 39.159 38.7379 39.2136V39.4454C39.1459 39.5091 39.1839 39.5227 39.1839 39.9864V41.432C39.1839 41.9275 39.1269 41.9593 38.6857 42.0139V42.2548H40.4982V42.2503ZM39.5303 38.4499C39.8102 38.4499 40.0143 38.2362 40.0143 37.9953C40.0143 37.7271 39.8102 37.5225 39.535 37.5225C39.2598 37.5225 39.0463 37.7271 39.0463 37.9953C39.0463 38.2362 39.274 38.4499 39.5255 38.4499H39.5303ZM37.0297 41.632C36.8541 41.7411 36.6738 41.8093 36.4745 41.8093C36.0807 41.8093 35.5445 41.4275 35.5445 40.5546C35.5445 39.4818 36.1471 39.2727 36.3986 39.2727C36.6501 39.2727 36.8826 39.3909 37.0297 39.6318V41.6275V41.632ZM38.3725 41.8093H38.1685C37.879 41.773 37.8411 41.732 37.8411 41.3547V37.1588C37.5042 37.2634 36.949 37.3543 36.4935 37.4089V37.6453C36.987 37.6907 37.0297 37.7134 37.0297 38.1317V39.0045C36.8636 38.9636 36.7165 38.9408 36.6406 38.9408C35.5445 38.9408 34.6335 39.75 34.6335 40.7501C34.6335 41.8093 35.4828 42.3366 36.0997 42.3366C36.1898 42.3366 36.3464 42.3003 36.5599 42.1775L37.0297 41.9048V42.3366C37.5564 42.1775 38.1922 42.0912 38.3725 42.0639V41.8139V41.8093ZM34.2823 42.2457V42.0048C33.8078 41.9548 33.7556 41.9139 33.7556 41.4502V37.1543C33.4045 37.2589 32.8968 37.3589 32.4698 37.4043V37.6362C32.911 37.6816 32.9538 37.6953 32.9538 38.1453V41.4502C32.9538 41.9048 32.8921 41.9366 32.4366 42.0048V42.2457H34.2776H34.2823ZM30.363 39.2318C30.9087 39.2318 31.2076 39.85 31.2076 40.7683C31.2076 41.782 30.8802 42.0412 30.5196 42.0412C29.9882 42.0412 29.6418 41.3593 29.6418 40.4592C29.6418 39.6409 29.9929 39.2272 30.3535 39.2272H30.363V39.2318ZM30.4532 38.9408C29.6892 38.9408 28.7307 39.5045 28.7307 40.7183C28.7307 41.5229 29.3286 42.3366 30.4437 42.3366C31.2551 42.3366 32.1234 41.7639 32.1234 40.5865C32.1234 39.6864 31.4496 38.9454 30.4626 38.9454H30.4532V38.9408ZM28.3511 37.5407H26.2207V37.8089C26.7758 37.8453 26.8422 37.8907 26.8422 38.4908V39.5591H24.6453V38.4908C24.6453 37.8907 24.7118 37.8453 25.2622 37.8089V37.5407H23.1317V37.8089C23.7296 37.8453 23.7912 37.8907 23.7912 38.4908V41.2956C23.7912 41.8957 23.7296 41.9275 23.1554 41.9775V42.2457H25.2812V41.9775C24.707 41.923 24.6406 41.8957 24.6406 41.2956V39.9364H26.8375V41.2956C26.8375 41.8957 26.7711 41.9275 26.159 41.9775V42.2457H28.3417V41.9775C27.7628 41.923 27.6916 41.8957 27.6916 41.2956V38.4908C27.6916 37.8907 27.7533 37.8453 28.3464 37.8089V37.5407H28.3511ZM21.0392 42.2457V42.0048C20.6264 41.9457 20.5789 41.923 20.5789 41.4729V40.0682C20.5789 39.3591 20.2183 38.9363 19.6014 38.9363C19.3832 38.9363 19.2076 39.0136 18.9941 39.1454C18.8138 39.2545 18.6572 39.3636 18.5148 39.4682V38.9181C18.1305 39.0545 17.7035 39.1454 17.2859 39.2V39.4318C17.6702 39.4954 17.7082 39.5136 17.7082 39.9546V41.4547C17.7082 41.9093 17.6702 41.9321 17.191 42.0003V42.2412H18.9182V42.0003C18.5433 41.9502 18.5101 41.9184 18.5101 41.4684V39.75C18.7236 39.5773 18.9466 39.4591 19.1839 39.4591C19.554 39.4591 19.7628 39.6864 19.7628 40.2001V41.4366C19.7628 41.9093 19.7248 41.9412 19.3547 41.9957V42.2366H21.0297L21.0392 42.2457ZM15.6157 41.6275C15.4828 41.732 15.3215 41.8048 15.1649 41.8048C14.9609 41.8048 14.6762 41.6457 14.6762 41.2729C14.6762 41.0229 14.8138 40.891 15.07 40.7683C15.2266 40.6865 15.4638 40.5728 15.6252 40.5001L15.6157 41.6275ZM16.9917 41.9366L16.911 41.6957C16.8351 41.7275 16.7402 41.7639 16.6406 41.7639C16.5267 41.7639 16.4033 41.6593 16.4033 41.3229V40.0591C16.4033 39.6773 16.3274 39.3863 16.0332 39.1545C15.8434 39.0045 15.6157 38.9363 15.3262 38.9363C14.8849 39.0227 14.3772 39.2909 14.1305 39.4545C13.9644 39.5727 13.879 39.6591 13.879 39.7773C13.879 39.9728 14.1258 40.1273 14.2966 40.1273C14.4294 40.1273 14.5291 40.0728 14.5765 39.9182C14.6335 39.7046 14.7094 39.5318 14.7901 39.4318C14.8755 39.3454 14.9609 39.3 15.0842 39.3C15.4116 39.3 15.6157 39.5727 15.6157 40.041V40.1955C15.4449 40.3455 14.8565 40.5456 14.4199 40.6819C14.0214 40.8319 13.8221 41.0365 13.8221 41.4138C13.8221 41.8775 14.2159 42.3321 14.7995 42.3321C14.9893 42.3321 15.3405 42.0866 15.6394 41.9002C15.6774 41.9912 15.7296 42.0957 15.8339 42.1912C15.9241 42.2685 16.0759 42.3321 16.2373 42.3321L16.9917 41.9366ZM13.452 42.2457V42.0048C12.9822 41.9457 12.9443 41.9093 12.9443 41.4229V38.9363C12.5694 39.0636 12.1329 39.1545 11.6916 39.2091V39.4409C12.0997 39.5045 12.1376 39.5182 12.1376 39.9819V41.4275C12.1376 41.923 12.0807 41.9548 11.6394 42.0093V42.2503H13.452V42.2457ZM12.484 38.4453C12.764 38.4453 12.968 38.2317 12.968 37.9907C12.968 37.7225 12.764 37.518 12.4887 37.518C12.2135 37.518 12 37.7225 12 37.9907C12 38.2317 12.2278 38.4453 12.4793 38.4453H12.484ZM11.0653 39.8819C11.051 39.7227 10.9561 39.2363 10.8849 39.0727C10.7189 38.9999 10.5196 38.9408 10.1827 38.9408C9.41876 38.9408 8.94901 39.3954 8.94901 39.9455C8.94901 40.5365 9.5184 40.7956 9.91698 40.982C10.3345 41.1683 10.4959 41.3411 10.4959 41.6138C10.4959 41.8593 10.2918 42.0457 10.0309 42.0457C9.57534 42.0457 9.24319 41.5957 9.10085 41.132L8.83987 41.1547C8.84936 41.4638 8.91105 41.9593 8.9585 42.0821C9.0961 42.1912 9.49468 42.3366 9.89325 42.3366C10.5196 42.3366 11.2029 41.9866 11.2029 41.2911C11.2029 40.7501 10.7948 40.4819 10.2064 40.2455C9.83157 40.0819 9.60381 39.9228 9.60381 39.6636C9.60381 39.4045 9.79835 39.2272 10.0309 39.2272C10.382 39.2272 10.6192 39.4909 10.8043 39.9546L11.051 39.8864L11.0653 39.8819ZM6.44367 40.291H5.20523C5.41401 39.7409 5.61805 39.1772 5.83157 38.6135H5.85529L6.44841 40.291H6.44367ZM8.51722 42.2457V41.9775C8.02374 41.923 7.9241 41.8548 7.69634 41.232C7.22184 40.0137 6.73786 38.6544 6.27759 37.4361L5.92647 37.5225L4.41757 41.2502C4.17083 41.8639 4.07593 41.9184 3.58246 41.9775V42.2457H5.26692V41.9775C4.72599 41.9139 4.68803 41.8411 4.81615 41.4547C4.90156 41.1638 4.99646 40.9047 5.08661 40.6728H6.57653C6.6999 40.9956 6.81852 41.3275 6.90393 41.5548C7.00357 41.8548 6.95612 41.9139 6.5101 41.9775V42.2457H8.51722Z" fill="#151515"/>
<path d="M0.374878 34.3213V43.9996" stroke="#853331" stroke-width="1.59" stroke-miterlimit="10"/>
<path d="M51.6251 34.3213V43.9996" stroke="#853331" stroke-width="1.59" stroke-miterlimit="10"/>
<path fill-rule="evenodd" clip-rule="evenodd" d="M4.27045 19.0246C6.87068 18.6882 10.1115 17.8972 13.7556 16.6426C23.9336 13.1422 33.357 7.38251 34.8043 3.77759C35.5397 1.94104 34.0688 1.01822 31.1032 1.01367C32.5314 1.46372 33.0961 2.38654 32.5362 3.78214C30.9941 7.63254 21.4899 13.5877 11.312 17.0881C8.73071 17.9745 6.35348 18.62 4.27045 19.0246Z" fill="#53B887"/>
<path fill-rule="evenodd" clip-rule="evenodd" d="M4.27045 19.0246C6.87068 18.6882 10.1115 17.8972 13.7556 16.6426C23.9336 13.1422 33.357 7.38251 34.8043 3.77759C35.5397 1.94104 34.0688 1.01822 31.1032 1.01367C32.5314 1.46372 33.0961 2.38654 32.5362 3.78214C30.9941 7.63254 21.4899 13.5877 11.312 17.0881C8.73071 17.9745 6.35348 18.62 4.27045 19.0246Z" fill="url(#paint0_linear_9071_220)"/>
<path fill-rule="evenodd" clip-rule="evenodd" d="M7.44006 18.9201C10.0403 18.5837 13.2811 17.7927 16.9252 16.5381C27.1032 13.0377 36.5267 7.27802 37.9739 3.6731C38.7093 1.83655 37.2384 0.913726 34.2728 0.90918C35.701 1.35923 36.2657 2.28205 35.7058 3.67765C34.1637 7.52805 24.6595 13.4832 14.4816 16.9836C11.9003 17.87 9.5231 18.5155 7.44006 18.9201Z" fill="#53B887"/>
<path fill-rule="evenodd" clip-rule="evenodd" d="M7.44006 18.9201C10.0403 18.5837 13.2811 17.7927 16.9252 16.5381C27.1032 13.0377 36.5267 7.27802 37.9739 3.6731C38.7093 1.83655 37.2384 0.913726 34.2728 0.90918C35.701 1.35923 36.2657 2.28205 35.7058 3.67765C34.1637 7.52805 24.6595 13.4832 14.4816 16.9836C11.9003 17.87 9.5231 18.5155 7.44006 18.9201Z" fill="url(#paint1_linear_9071_220)"/>
<path fill-rule="evenodd" clip-rule="evenodd" d="M20.4555 16.1696C24.1186 18.2834 26.7758 20.4655 27.4353 22.1066C28.0427 23.6249 26.828 24.3886 24.3748 24.3886C25.5563 24.0204 26.0213 23.2521 25.5611 22.0975C24.9253 20.5109 22.6477 18.488 19.4828 16.5014C19.8054 16.3923 20.1281 16.2832 20.4555 16.165V16.1696Z" fill="url(#paint2_linear_9071_220)"/>
<path fill-rule="evenodd" clip-rule="evenodd" d="M21.9454 15.6247C26.1874 17.9249 29.3333 20.3888 30.0593 22.1935C30.6666 23.7119 29.4519 24.4756 26.9988 24.4756C28.1803 24.1074 28.6453 23.3391 28.185 22.1844C27.478 20.4252 24.7639 18.1386 21.0581 15.952C21.3523 15.8429 21.6512 15.7338 21.9454 15.6201V15.6247Z" fill="url(#paint3_linear_9071_220)"/>
<path fill-rule="evenodd" clip-rule="evenodd" d="M19.7106 23.9704C19.8576 24.0249 20.0095 24.075 20.1566 24.125C28.5694 27.0162 34.4199 26.9434 33.2242 23.9659C32.6168 22.4475 30.2966 20.47 27.0605 18.5107C28.9632 19.9427 30.2918 21.3247 30.7568 22.4793C31.7817 25.0341 28.2467 25.6888 22.4484 24.3432C21.5279 24.2522 20.6168 24.1204 19.7058 23.9704H19.7106Z" fill="url(#paint4_linear_9071_220)"/>
<path fill-rule="evenodd" clip-rule="evenodd" d="M17.0344 23.4473C19.0795 24.4202 21.2859 25.3248 23.535 26.0976C31.9478 28.9888 37.7984 28.9161 36.6026 25.9385C35.9953 24.4202 33.675 22.4427 30.4389 20.4834C32.3417 21.9154 33.6702 23.2973 34.1353 24.452C35.4116 27.6341 29.6275 27.866 21.2147 24.9748C19.9431 24.5384 18.6857 24.0565 17.4615 23.5383C17.3191 23.5064 17.1768 23.4792 17.0344 23.4473Z" fill="url(#paint5_linear_9071_220)"/>
<path fill-rule="evenodd" clip-rule="evenodd" d="M34.6335 22.3519C41.7936 18.3242 46.1922 13.0282 45.0344 9.15051C44.5931 7.66854 43.3879 6.56388 41.6275 5.85017C40.8256 5.69561 39.9526 5.5956 39.0178 5.55469C41.4093 6.21839 43.0558 7.45943 43.5872 9.25052C44.6975 12.9645 40.6975 17.9878 34.0593 21.9473C34.2539 22.0791 34.4437 22.2155 34.6335 22.3519Z" fill="url(#paint6_linear_9071_220)"/>
<path fill-rule="evenodd" clip-rule="evenodd" d="M35.5824 23.0797C43.6346 18.8111 48.6833 12.9696 47.4258 8.74645C46.9608 7.19629 45.7034 6.04162 43.8624 5.29154C43.0273 5.12789 42.1115 5.02788 41.1293 4.98242C43.6346 5.67795 45.3523 6.97808 45.9122 8.84646C47.1222 12.9014 42.5243 18.4384 35.0415 22.6524C35.2266 22.7934 35.4069 22.9343 35.5824 23.0797Z" fill="url(#paint7_linear_9071_220)"/>
<path fill-rule="evenodd" clip-rule="evenodd" d="M26.7853 27.985L26.5433 28.0714C16.4935 31.6945 7.29776 31.2262 6.01188 27.0303C5.37131 24.9438 6.80429 22.3299 9.64177 19.7796L9.67973 19.7705C7.38792 22.0662 6.28709 24.371 6.86597 26.2484C8.09492 30.258 16.5267 30.8626 26.0356 27.7577C26.2918 27.835 26.5433 27.9123 26.7901 27.9804L26.7853 27.985ZM35.9478 23.3618L35.7912 23.4663V23.4527L35.9478 23.3618Z" fill="url(#paint8_linear_9071_220)"/>
<path fill-rule="evenodd" clip-rule="evenodd" d="M25.0913 27.4667C16.3274 30.2533 8.61211 29.6532 7.47332 25.9483C6.91341 24.1209 8.0522 21.857 10.3772 19.6204L10.4769 19.5977C8.6216 21.6024 7.76276 23.5844 8.26572 25.221C9.33334 28.7031 16.2088 29.4441 24.3037 27.2121C24.5694 27.303 24.8304 27.3894 25.0866 27.4712L25.0913 27.4667Z" fill="url(#paint9_linear_9071_220)"/>
</g>
<defs>
<linearGradient id="paint0_linear_9071_220" x1="49.8695" y1="-3.40973" x2="6.03797" y2="19.2222" gradientUnits="userSpaceOnUse">
<stop stop-color="#150000"/>
<stop offset="1" stop-color="#FF0505"/>
</linearGradient>
<linearGradient id="paint1_linear_9071_220" x1="53.0391" y1="-3.51422" x2="9.20759" y2="19.1177" gradientUnits="userSpaceOnUse">
<stop stop-color="#150000"/>
<stop offset="1" stop-color="#FF0505"/>
</linearGradient>
<linearGradient id="paint2_linear_9071_220" x1="31.5162" y1="14.1454" x2="18.0635" y2="18.1601" gradientUnits="userSpaceOnUse">
<stop stop-color="#150000"/>
<stop offset="1" stop-color="#FF0505"/>
</linearGradient>
<linearGradient id="paint3_linear_9071_220" x1="34.648" y1="13.4453" x2="19.5784" y2="18.1618" gradientUnits="userSpaceOnUse">
<stop stop-color="#150000"/>
<stop offset="1" stop-color="#FF0505"/>
</linearGradient>
<linearGradient id="paint4_linear_9071_220" x1="40.0011" y1="16.6107" x2="20.7905" y2="26.889" gradientUnits="userSpaceOnUse">
<stop stop-color="#150000"/>
<stop offset="1" stop-color="#FF0505"/>
</linearGradient>
<linearGradient id="paint5_linear_9071_220" x1="46.3094" y1="18.5834" x2="23.9715" y2="35.8229" gradientUnits="userSpaceOnUse">
<stop stop-color="#150000"/>
<stop offset="1" stop-color="#FF0505"/>
</linearGradient>
<linearGradient id="paint6_linear_9071_220" x1="39.639" y1="5.55469" x2="39.639" y2="22.3519" gradientUnits="userSpaceOnUse">
<stop stop-color="#C5C5C5"/>
<stop offset="1" stop-color="#DDDDDD"/>
</linearGradient>
<linearGradient id="paint7_linear_9071_220" x1="41.3294" y1="4.98242" x2="41.3294" y2="23.0797" gradientUnits="userSpaceOnUse">
<stop stop-color="#C5C5C5"/>
<stop offset="1" stop-color="#DDDDDD"/>
</linearGradient>
<linearGradient id="paint8_linear_9071_220" x1="20.9044" y1="19.7705" x2="20.9044" y2="30.5102" gradientUnits="userSpaceOnUse">
<stop stop-color="#C5C5C5"/>
<stop offset="1" stop-color="#DDDDDD"/>
</linearGradient>
<linearGradient id="paint9_linear_9071_220" x1="16.2119" y1="19.5977" x2="16.2119" y2="29.2065" gradientUnits="userSpaceOnUse">
<stop stop-color="#C5C5C5"/>
<stop offset="1" stop-color="#DDDDDD"/>
</linearGradient>
<clipPath id="clip0_9071_220">
<rect width="52" height="44" fill="white"/>
</clipPath>
</defs>
</svg>
