<svg width="153" height="129" viewBox="0 0 153 129" fill="none" xmlns="http://www.w3.org/2000/svg">
<g clip-path="url(#clip0_9080_236)">
<path fill-rule="evenodd" clip-rule="evenodd" d="M137.154 124.124C138.02 124.124 138.578 124.164 139.137 124.324C139.779 124.55 140.24 124.99 140.24 125.697C140.24 126.869 139.179 127.802 137.364 127.802C135.702 127.802 134.516 126.883 134.516 125.83C134.516 125.35 134.795 124.884 135.242 124.55C135.591 124.231 136.065 124.124 137.126 124.124H137.14H137.154ZM136.861 114.981C137.964 114.981 138.634 116.167 138.634 117.607C138.634 119.153 137.978 120.006 137.07 120.006C135.981 120.006 135.283 118.859 135.283 117.38C135.283 115.901 136.065 114.981 136.847 114.981H136.875H136.861ZM142.362 114.475C141.496 114.581 140.379 114.688 139.332 114.754C138.564 114.368 137.88 114.181 137.015 114.181H136.987C135.144 114.181 132.84 115.288 132.84 117.673C132.84 119.059 133.72 120.072 134.865 120.485C134.516 120.899 133.804 121.472 132.77 121.871C132.77 122.111 132.84 122.551 133.091 122.884C133.371 123.324 133.859 123.764 134.683 124.044C134.139 124.377 133.427 124.857 132.98 125.257C132.575 125.603 132.352 125.963 132.352 126.416C132.352 127.642 133.678 129.015 136.372 129.015C139.318 129.015 142.152 127.096 142.152 124.764C142.152 122.645 140.254 122.218 138.843 122.218C138.118 122.218 137.433 122.258 136.652 122.258C135.66 122.258 135.269 121.818 135.269 121.445C135.269 121.165 135.521 120.872 135.758 120.699C136.121 120.752 136.512 120.805 136.847 120.805C138.899 120.805 140.896 119.726 140.896 117.473C140.896 116.754 140.686 116.207 140.323 115.794L141.58 115.887C141.929 115.687 142.348 115.021 142.515 114.648L142.376 114.475H142.362ZM131.416 123.871V123.164C130.202 122.991 130.062 122.924 130.062 121.605V117.487C130.062 115.407 129.001 114.168 127.186 114.168C126.544 114.168 126.027 114.395 125.399 114.781C124.868 115.101 124.408 115.421 123.989 115.727V114.115C122.858 114.515 121.601 114.781 120.373 114.941V115.621C121.504 115.807 121.615 115.861 121.615 117.153V121.552C121.615 122.884 121.504 122.951 120.094 123.151V123.857H125.176V123.151C124.073 123.004 123.975 122.911 123.975 121.592V116.554C124.603 116.047 125.259 115.701 125.957 115.701C127.046 115.701 127.661 116.367 127.661 117.873V121.498C127.661 122.884 127.549 122.978 126.46 123.138V123.844H131.388L131.416 123.871ZM119.158 123.871V123.164C117.776 122.991 117.664 122.884 117.664 121.458V114.168C116.562 114.541 115.277 114.808 113.979 114.968V115.647C115.179 115.834 115.291 115.874 115.291 117.233V121.472C115.291 122.924 115.124 123.018 113.825 123.178V123.884H119.158V123.871ZM116.31 112.729C117.134 112.729 117.734 112.102 117.734 111.396C117.734 110.609 117.134 110.01 116.324 110.01C115.514 110.01 114.886 110.609 114.886 111.396C114.886 112.102 115.556 112.729 116.296 112.729H116.31ZM108.953 122.058C108.436 122.378 107.906 122.578 107.319 122.578C106.16 122.578 104.583 121.458 104.583 118.899C104.583 115.754 106.356 115.141 107.096 115.141C107.836 115.141 108.52 115.487 108.953 116.194V122.045V122.058ZM112.904 122.578H112.303C111.452 122.471 111.34 122.351 111.34 121.245V108.943C110.349 109.25 108.715 109.517 107.375 109.677V110.37C108.827 110.503 108.953 110.569 108.953 111.796V114.355C108.464 114.235 108.031 114.168 107.808 114.168C104.583 114.168 101.902 116.54 101.902 119.472C101.902 122.578 104.401 124.124 106.216 124.124C106.482 124.124 106.942 124.017 107.571 123.657L108.953 122.858V124.124C110.502 123.657 112.373 123.404 112.904 123.324V122.591V122.578ZM100.869 123.857V123.151C99.4731 123.004 99.3195 122.884 99.3195 121.525V108.93C98.2864 109.237 96.7926 109.53 95.5361 109.663V110.343C96.8344 110.476 96.9601 110.516 96.9601 111.836V121.525C96.9601 122.858 96.7786 122.951 95.4383 123.151V123.857H100.855H100.869ZM89.3373 115.021C90.9429 115.021 91.8224 116.834 91.8224 119.526C91.8224 122.498 90.8591 123.258 89.798 123.258C88.2344 123.258 87.2152 121.258 87.2152 118.619C87.2152 116.22 88.2484 115.008 89.3094 115.008H89.3373V115.021ZM89.6026 114.168C87.3548 114.168 84.5347 115.821 84.5347 119.379C84.5347 121.738 86.2938 124.124 89.5747 124.124C91.962 124.124 94.5169 122.445 94.5169 118.993C94.5169 116.354 92.5344 114.181 89.6305 114.181H89.6026V114.168ZM83.4178 110.063H77.1493V110.849C78.7827 110.956 78.9782 111.089 78.9782 112.849V115.981H72.5142V112.849C72.5142 111.089 72.7096 110.956 74.3291 110.849V110.063H68.0606V110.849C69.8197 110.956 70.0012 111.089 70.0012 112.849V121.072C70.0012 122.831 69.8197 122.924 68.1304 123.071V123.857H74.385V123.071C72.6957 122.911 72.5002 122.831 72.5002 121.072V117.087H78.9642V121.072C78.9642 122.831 78.7688 122.924 76.9678 123.071V123.857H83.3899V123.071C81.6866 122.911 81.4772 122.831 81.4772 121.072V112.849C81.4772 111.089 81.6587 110.956 83.4038 110.849V110.063H83.4178ZM61.9037 123.857V123.151C60.6891 122.978 60.5495 122.911 60.5495 121.592V117.473C60.5495 115.394 59.4884 114.155 57.6735 114.155C57.0313 114.155 56.5147 114.381 55.8865 114.768C55.3559 115.088 54.8952 115.407 54.4764 115.714V114.101C53.3455 114.501 52.089 114.768 50.8605 114.928V115.607C51.9913 115.794 52.103 115.847 52.103 117.14V121.538C52.103 122.871 51.9913 122.938 50.5812 123.138V123.844H55.6631V123.138C54.5602 122.991 54.4624 122.898 54.4624 121.578V116.54C55.0907 116.034 55.7468 115.687 56.4449 115.687C57.5339 115.687 58.1482 116.354 58.1482 117.86V121.485C58.1482 122.871 58.0365 122.964 56.9475 123.124V123.831H61.8758L61.9037 123.857ZM45.9461 122.045C45.5552 122.351 45.0805 122.565 44.6198 122.565C44.0195 122.565 43.1818 122.098 43.1818 121.005C43.1818 120.272 43.5867 119.886 44.3406 119.526C44.8013 119.286 45.4994 118.953 45.9741 118.739L45.9461 122.045ZM49.9949 122.951L49.7575 122.245C49.5341 122.338 49.2549 122.445 48.9617 122.445C48.6267 122.445 48.2637 122.138 48.2637 121.152V117.447C48.2637 116.327 48.0403 115.474 47.1747 114.794C46.6163 114.355 45.9461 114.155 45.0945 114.155C43.7961 114.408 42.3023 115.194 41.5763 115.674C41.0877 116.021 40.8364 116.274 40.8364 116.62C40.8364 117.193 41.5623 117.647 42.0649 117.647C42.4558 117.647 42.749 117.487 42.8886 117.033C43.0562 116.407 43.2796 115.901 43.5169 115.607C43.7682 115.354 44.0195 115.221 44.3825 115.221C45.3458 115.221 45.9461 116.021 45.9461 117.393V117.846C45.4435 118.286 43.7124 118.873 42.4279 119.273C41.2552 119.712 40.6688 120.312 40.6688 121.418C40.6688 122.778 41.8276 124.111 43.5448 124.111C44.1033 124.111 45.1364 123.391 46.0159 122.844C46.1276 123.111 46.2812 123.418 46.5883 123.697C46.8536 123.924 47.3004 124.111 47.775 124.111L49.9949 122.951ZM39.5799 123.857V123.151C38.1977 122.978 38.086 122.871 38.086 121.445V114.155C36.9831 114.528 35.6987 114.794 34.4003 114.954V115.634C35.6009 115.821 35.7126 115.861 35.7126 117.22V121.458C35.7126 122.911 35.5451 123.004 34.2467 123.164V123.871H39.5799V123.857ZM36.7318 112.715C37.5555 112.715 38.1558 112.089 38.1558 111.382C38.1558 110.596 37.5555 109.996 36.7458 109.996C35.936 109.996 35.3078 110.596 35.3078 111.382C35.3078 112.089 35.9779 112.715 36.7178 112.715H36.7318ZM32.5574 116.927C32.5155 116.46 32.2363 115.034 32.0269 114.555C31.5382 114.341 30.9519 114.168 29.9606 114.168C27.7129 114.168 26.3307 115.501 26.3307 117.113C26.3307 118.846 28.0061 119.606 29.1788 120.152C30.4074 120.699 30.8821 121.205 30.8821 122.005C30.8821 122.724 30.2817 123.271 29.5139 123.271C28.1736 123.271 27.1963 121.951 26.7775 120.592L26.0096 120.659C26.0376 121.565 26.2191 123.018 26.3587 123.378C26.7635 123.697 27.9363 124.124 29.109 124.124C30.9519 124.124 32.9623 123.098 32.9623 121.058C32.9623 119.472 31.7616 118.686 30.0304 117.993C28.9275 117.513 28.2574 117.047 28.2574 116.287C28.2574 115.527 28.8298 115.008 29.5139 115.008C30.547 115.008 31.2451 115.781 31.7895 117.14L32.5155 116.94L32.5574 116.927ZM18.9593 118.126H15.3154C15.9297 116.514 16.53 114.861 17.1583 113.208H17.2281L18.9732 118.126H18.9593ZM25.0603 123.857V123.071C23.6083 122.911 23.3151 122.711 22.645 120.885C21.2489 117.313 19.8249 113.328 18.4706 109.756L17.4375 110.01L12.9979 120.939C12.2719 122.738 11.9927 122.898 10.5407 123.071V123.857H15.4969V123.071C13.9053 122.884 13.7937 122.671 14.1706 121.538C14.4219 120.685 14.7011 119.926 14.9664 119.246H19.3502C19.7132 120.192 20.0622 121.165 20.3135 121.832C20.6067 122.711 20.4671 122.884 19.1547 123.071V123.857H25.0603Z" fill="white"/>
<path d="M1.10303 100.624V128.999" stroke="white" stroke-width="1.59" stroke-miterlimit="10"/>
<path d="M151.897 100.624V128.999" stroke="white" stroke-width="1.59" stroke-miterlimit="10"/>
<path fill-rule="evenodd" clip-rule="evenodd" d="M12.5649 55.777C20.2156 54.7907 29.7511 52.4717 40.4732 48.7932C70.4199 38.5308 98.1467 21.6444 102.405 11.0755C104.569 5.69104 100.241 2.9855 91.5151 2.97217C95.7174 4.29162 97.3788 6.99717 95.7314 11.0888C91.194 22.3775 63.2299 39.8369 33.2833 50.0993C25.6884 52.6983 18.6939 54.5908 12.5649 55.777Z" fill="white"/>
<path fill-rule="evenodd" clip-rule="evenodd" d="M12.5649 55.777C20.2156 54.7907 29.7511 52.4717 40.4732 48.7932C70.4199 38.5308 98.1467 21.6444 102.405 11.0755C104.569 5.69104 100.241 2.9855 91.5151 2.97217C95.7174 4.29162 97.3788 6.99717 95.7314 11.0888C91.194 22.3775 63.2299 39.8369 33.2833 50.0993C25.6884 52.6983 18.6939 54.5908 12.5649 55.777Z" fill="white"/>
<path fill-rule="evenodd" clip-rule="evenodd" d="M21.8909 55.4708C29.5416 54.4846 39.0771 52.1656 49.7992 48.4871C79.7458 38.2246 107.473 21.3383 111.731 10.7693C113.895 5.38489 109.567 2.67934 100.841 2.66602C105.043 3.98547 106.705 6.69102 105.057 10.7827C100.52 22.0713 72.5559 39.5308 42.6092 49.7932C35.0144 52.3921 28.0199 54.2847 21.8909 55.4708Z" fill="white"/>
<path fill-rule="evenodd" clip-rule="evenodd" d="M21.8909 55.4708C29.5416 54.4846 39.0771 52.1656 49.7992 48.4871C79.7458 38.2246 107.473 21.3383 111.731 10.7693C113.895 5.38489 109.567 2.67934 100.841 2.66602C105.043 3.98547 106.705 6.69102 105.057 10.7827C100.52 22.0713 72.5559 39.5308 42.6092 49.7932C35.0144 52.3921 28.0199 54.2847 21.8909 55.4708Z" fill="white"/>
<path fill-rule="evenodd" clip-rule="evenodd" d="M60.1863 47.4069C70.9643 53.6043 78.7825 60.0017 80.7231 64.813C82.5102 69.2645 78.9361 71.5036 71.7182 71.5036C75.1945 70.424 76.5627 68.1716 75.2085 64.7864C73.3377 60.135 66.6364 54.2041 57.3243 48.3798C58.2736 48.0599 59.223 47.7401 60.1863 47.3936V47.4069Z" fill="white"/>
<path fill-rule="evenodd" clip-rule="evenodd" d="M64.5702 45.8087C77.0515 52.5526 86.3077 59.7763 88.4437 65.0674C90.2308 69.5189 86.6567 71.758 79.4388 71.758C82.9151 70.6785 84.2833 68.4261 82.9291 65.0408C80.8489 59.8829 72.8631 53.179 61.9595 46.7683C62.8251 46.4485 63.7046 46.1286 64.5702 45.7954V45.8087Z" fill="white"/>
<path fill-rule="evenodd" clip-rule="evenodd" d="M57.9945 70.2777C58.4273 70.4376 58.8741 70.5842 59.3069 70.7309C84.06 79.2073 101.274 78.9941 97.7558 70.2644C95.9688 65.8129 89.1418 60.0153 79.6203 54.271C85.2188 58.4693 89.1279 62.5209 90.4961 65.9062C93.5117 73.3964 83.1106 75.3156 66.0501 71.3706C63.3417 71.104 60.6611 70.7175 57.9806 70.2777H57.9945Z" fill="white"/>
<path fill-rule="evenodd" clip-rule="evenodd" d="M50.1205 68.7439C56.1378 71.5961 62.6297 74.2483 69.2473 76.5141C94.0004 84.9906 111.214 84.7773 107.696 76.0476C105.909 71.5961 99.0822 65.7985 89.5607 60.0542C95.1591 64.2525 99.0683 68.3041 100.436 71.6894C104.192 81.0189 87.1734 81.6986 62.4203 73.2221C58.6787 71.9426 54.979 70.5299 51.377 69.0105C50.9582 68.9172 50.5394 68.8372 50.1205 68.7439Z" fill="white"/>
<path fill-rule="evenodd" clip-rule="evenodd" d="M101.902 65.5319C122.97 53.7235 135.912 38.1966 132.505 26.828C131.207 22.4831 127.661 19.2444 122.481 17.152C120.122 16.6988 117.553 16.4056 114.802 16.2856C121.839 18.2315 126.683 21.87 128.247 27.1212C131.514 38.01 119.745 52.7372 100.213 64.3458C100.785 64.7323 101.344 65.1321 101.902 65.5319Z" fill="white"/>
<path fill-rule="evenodd" clip-rule="evenodd" d="M104.694 67.666C128.387 55.1511 143.241 38.0249 139.541 25.6433C138.173 21.0986 134.474 17.7133 129.057 15.5142C126.599 15.0344 123.905 14.7412 121.015 14.6079C128.387 16.6471 133.44 20.4588 135.088 25.9366C138.648 37.825 125.12 54.0583 103.103 66.4132C103.647 66.8263 104.178 67.2395 104.694 67.666Z" fill="white"/>
<path fill-rule="evenodd" clip-rule="evenodd" d="M78.8106 82.0468L78.0985 82.3C48.5289 92.9223 21.4722 91.5495 17.6887 79.2479C15.804 73.1304 20.0202 65.4669 28.369 57.99L28.4807 57.9634C21.7375 64.6939 18.4985 71.4511 20.2017 76.9555C23.8177 88.7107 48.6266 90.4833 76.6047 81.3804C77.3586 81.6069 78.0985 81.8335 78.8245 82.0334L78.8106 82.0468ZM105.769 68.4924L105.309 68.7989V68.7589L105.769 68.4924Z" fill="white"/>
<path fill-rule="evenodd" clip-rule="evenodd" d="M73.8264 80.5275C48.0402 88.6974 25.3394 86.9382 21.9887 76.076C20.3413 70.7182 23.692 64.081 30.5329 57.5237L30.8261 57.457C25.3673 63.3346 22.8404 69.1455 24.3202 73.9435C27.4615 84.1527 47.6912 86.3251 71.5089 79.7811C72.2907 80.0477 73.0585 80.3009 73.8124 80.5408L73.8264 80.5275Z" fill="white"/>
</g>
<defs>
<clipPath id="clip0_9080_236">
<rect width="153" height="129" fill="white" transform="translate(0 0.000488281)"/>
</clipPath>
</defs>
</svg>
